<svg width="45" height="45" viewBox="0 0 45 45" fill="none" xmlns="http://www.w3.org/2000/svg">
<path fill-rule="evenodd" clip-rule="evenodd" d="M27.5776 6.7339e-05C27.3216 0.00313552 27.0576 0.130205 26.7626 0.367641L17.541 9.46029C17.4825 9.4498 17.4247 9.44546 17.3652 9.44434C12.6486 9.4656 10.1486 11.8269 7.75098 14.0916L7.68016 14.1585C7.15638 14.6839 6.63035 15.2113 6.10643 15.7366L6.10536 15.7376C4.1429 17.7053 2.2101 19.6431 0.536243 21.3336C-0.197123 22.1361 -0.133662 22.6694 0.456329 23.2192L21.2648 42.2355C23.6586 44.4481 25.4363 44.9673 27.4178 45H43.6395C44.5624 44.9949 45.0047 44.4367 44.9979 43.7536C44.9973 43.0658 44.9981 42.3726 44.9989 41.679C45 40.6721 45.0011 39.6645 44.9979 38.6719C44.9817 36.3431 43.759 35.3437 42.3609 34.4531C41.4007 33.8415 40.3127 33.3668 39.2101 32.8859L39.2101 32.8858C38.6773 32.6534 38.1411 32.4195 37.6143 32.1679C35.9974 31.396 34.4869 30.4805 33.3471 29.0679C32.2354 27.6899 31.5615 25.571 31.3014 22.9155C31.2882 22.7359 31.2608 22.5672 31.2363 22.4161L31.2215 22.3242L40.0276 13.5671C40.4531 13.1489 40.4531 12.3875 40.0276 11.9692L28.3608 0.367641C28.0832 0.116925 27.8337 -0.00326675 27.5776 6.7339e-05ZM11 26.2656L23.0228 37.2017C24.8665 38.8463 26.6846 39.9344 29.1758 39.9344H42.7285V42.7469H27.4178C25.5255 42.7469 24.0649 41.7028 22.7991 40.5736C18.863 36.9936 14.9308 33.3994 11 29.8029V26.2656ZM8 23.5367L4.61164 20.4546C4.31036 20.7586 4.00588 21.0576 3.70135 21.3567L3.70112 21.3569C3.39092 21.6616 3.08068 21.9663 2.77371 22.2763C4.51582 23.8692 6.25784 25.4634 8 27.0577V23.5367Z" fill="#353748"/>
</svg>
