<svg width="38" height="45" viewBox="0 0 38 45" fill="none" xmlns="http://www.w3.org/2000/svg">
<path fill-rule="evenodd" clip-rule="evenodd" d="M7.80357 8.50735L38 0V8.50735L38 30.7428L38 30.7573L38 30.7719V31.7389L37.9109 31.7654C37.4151 34.5379 34.9094 36.647 31.8929 36.647C28.52 36.647 25.7857 34.0101 25.7857 30.7573C25.7857 27.5045 28.52 24.8676 31.8929 24.8676C32.4815 24.8676 33.0507 24.9479 33.5893 25.0978V9.74999L12.2143 15.7721V39.0951C12.2143 39.1001 12.2143 39.1052 12.2143 39.1103C12.2143 39.1154 12.2143 39.1205 12.2143 39.1255V40.0919L12.1252 40.1184C11.6293 42.8909 9.12364 45 6.10714 45C2.73426 45 0 42.3631 0 39.1103C0 35.8575 2.73426 33.2206 6.10714 33.2206C6.69578 33.2206 7.26497 33.3009 7.80357 33.4508V17.0147V16.8603V8.50735Z" fill="#353748"/>
</svg>
