<svg width="60" height="45" viewBox="0 0 60 45" fill="none" xmlns="http://www.w3.org/2000/svg">
<path fill-rule="evenodd" clip-rule="evenodd" d="M60 14.5746C60 12.8215 58.515 11.3872 56.7 11.3872H52.7538L49.8924 4.20102C49.1814 2.41606 47.0424 0.525634 45.138 0L30 1.58897e-05C19.8 1.58897e-05 14.8614 0.000579166 14.8614 0.000579166C12.9576 0.526214 10.8186 2.41606 10.1076 4.2016L7.2462 11.3872H3.3C1.485 11.3872 0 12.8215 0 14.5746C0 16.3277 1.485 17.762 3.3 17.762H4.7076L3.6924 20.312C2.9814 22.0964 2.4 25.1221 2.4 27.0345V42.1023L2.4 42.1272C2.39994 44.3385 2.39993 45 6.5 45C10.7 45 10.8 44.3335 10.8 42.1023V39.7842H49.2V42.1023C49.2 44.3335 49.3 45 53.5 45C57.6004 45 57.6003 44.3449 57.6 42.1595L57.6 42.1023V27.0345C57.6 25.1221 57.018 22.0964 56.3076 20.312L55.2918 17.762H56.7C58.515 17.762 60 16.3277 60 14.5746ZM10.6146 15.5158L13.9848 6.67967C14.2134 6.0816 14.94 5.59189 15.6 5.59189H44.4C45.06 5.59189 45.7872 6.0816 46.0146 6.67909L49.3848 15.5152C49.6128 16.1133 49.26 16.603 48.6 16.603H11.4C10.74 16.603 10.3866 16.1133 10.6146 15.5158ZM54 26.6482C54 28.782 52.2091 30.5117 50 30.5117C47.7909 30.5117 46 28.782 46 26.6482C46 24.5144 47.7909 22.7847 50 22.7847C52.2091 22.7847 54 24.5144 54 26.6482ZM10 30.5117C12.2091 30.5117 14 28.782 14 26.6482C14 24.5144 12.2091 22.7847 10 22.7847C7.79086 22.7847 6 24.5144 6 26.6482C6 28.782 7.79086 30.5117 10 30.5117Z" fill="#353748"/>
</svg>
