<svg width="45" height="45" viewBox="0 0 45 45" fill="none" xmlns="http://www.w3.org/2000/svg">
<path fill-rule="evenodd" clip-rule="evenodd" d="M10.0607 2.49472C9.47487 1.92402 9.47487 0.99873 10.0607 0.428027C10.6464 -0.142675 11.5962 -0.142676 12.182 0.428027L16.9283 5.05216L20.614 1.46139C21.1998 0.890689 22.1495 0.890689 22.7353 1.46139C23.3211 2.03209 23.3211 2.95739 22.7353 3.52809L19.1673 7.00424H41C43.2091 7.00424 45 8.7951 45 11.0042V35.8852C45 37.749 43.7252 39.3151 42 39.7592V42.75C42 43.9927 40.9926 45 39.75 45C38.5074 45 37.5 43.9927 37.5 42.75V39.8852H7.50001V42.75C7.50001 43.9927 6.49265 45 5.25001 45C4.00737 45 3.00001 43.9927 3.00001 42.75V39.7592C1.27478 39.3151 0 37.749 0 35.8852V11.0042C0 8.7951 1.79086 7.00424 4 7.00424H14.6894L10.0607 2.49472ZM4.5 15.6577C4.5 12.8963 6.73857 10.6577 9.5 10.6577H29.5C32.2614 10.6577 34.5 12.8962 34.5 15.6577V29.7704C34.5 32.5318 32.2614 34.7704 29.5 34.7704H9.5C6.73857 34.7704 4.5 32.5318 4.5 29.7704V15.6577ZM40.5 15.0418C41.7426 15.0418 42.75 14.0604 42.75 12.8497C42.75 11.6391 41.7426 10.6577 40.5 10.6577C39.2574 10.6577 38.25 11.6391 38.25 12.8497C38.25 14.0604 39.2574 15.0418 40.5 15.0418ZM42.75 19.4259C42.75 20.6366 41.7426 21.618 40.5 21.618C39.2574 21.618 38.25 20.6366 38.25 19.4259C38.25 18.2153 39.2574 17.2339 40.5 17.2339C41.7426 17.2339 42.75 18.2153 42.75 19.4259Z" fill="#353748"/>
</svg>
