<svg width="40" height="45" viewBox="0 0 40 45" fill="none" xmlns="http://www.w3.org/2000/svg">
<path fill-rule="evenodd" clip-rule="evenodd" d="M10.8553 42.89C8.37184 45.7009 4.34653 45.7009 1.86306 42.89C-0.621021 40.0792 -0.621021 35.5225 1.86306 32.7116C3.41236 30.9574 5.56312 30.2977 7.56491 30.7333L12.9477 26.6761L16.1884 23.0075L19.4298 26.6754L16.1884 30.3441L12.6038 36.4365C12.9887 38.7008 12.4058 41.1365 10.8553 42.89ZM7.89141 12.3268L23.8114 30.3448L27.396 36.4372C27.0105 38.7029 27.594 41.1372 29.1439 42.8914C31.6274 45.703 35.6533 45.703 38.1374 42.8907C40.6209 40.0799 40.6209 35.5239 38.1374 32.713C36.5875 30.9581 34.4361 30.2984 32.4349 30.7347L27.0527 26.6768L3.48374 0.00140538C1.99341 1.6882 3.08835 6.8898 7.89141 12.3268ZM31.9415 39.7251C32.8806 40.7873 34.4013 40.788 35.3405 39.7251C36.2784 38.6621 36.2784 36.9409 35.3405 35.8787C34.4013 34.8157 32.8806 34.8164 31.9415 35.8787C31.0023 36.9409 31.0023 38.6621 31.9415 39.7251ZM32.1078 12.3261L23.8108 21.7169L20.57 18.0489L36.5161 0C38.0071 1.6875 36.9115 6.8891 32.1078 12.3261ZM8.05776 39.7237C7.11924 40.7859 5.59912 40.7866 4.65999 39.7237C3.72147 38.6614 3.72147 36.9395 4.65999 35.878C5.59912 34.815 7.11924 34.8157 8.05776 35.878C8.99689 36.9402 8.99689 38.6607 8.05776 39.7237Z" fill="#353748"/>
</svg>
