<svg width="50" height="45" viewBox="0 0 50 45" fill="none" xmlns="http://www.w3.org/2000/svg">
<path d="M42.1045 12.8532C44.4 13.9009 46.4477 15.4056 48.1189 17.2756C49.3473 18.651 50.0171 20.4325 49.9997 22.2842C49.9841 24.1355 49.282 25.9281 48.0288 27.3256C46.3255 29.2245 44.2495 30.7639 41.933 31.8523C41.8624 31.8853 41.7932 31.9184 41.7214 31.9508C41.729 32.0272 41.7344 32.1024 41.7405 32.1788C41.9358 34.6868 41.6114 37.2161 40.7833 39.6104C40.1738 41.3711 38.9386 42.8631 37.3083 43.8025C35.6798 44.7414 33.7689 45.0643 31.9379 44.7107C29.4473 44.2286 27.0928 43.2453 25.0182 41.8232C24.9547 41.779 24.8926 41.7349 24.8294 41.6916C24.7649 41.7371 24.7011 41.7815 24.6382 41.8257C22.5375 43.2857 20.1644 44.3105 17.6658 44.8336C15.8276 45.2195 13.9233 44.9289 12.3101 44.0171C10.6968 43.1054 9.48792 41.6357 8.90987 39.885C8.12334 37.5053 7.84346 34.9811 8.08479 32.4702C8.09182 32.3945 8.09918 32.3182 8.10777 32.2411C8.03841 32.2094 7.96837 32.1789 7.89698 32.1468C5.60154 31.0991 3.55379 29.5944 1.88258 27.7244C0.654207 26.349 -0.0155661 24.5675 0.000274693 22.7172C0.0171132 20.8651 0.719474 19.0719 1.97209 17.6755C3.67622 15.7763 5.75073 14.2369 8.06757 13.1479C8.13821 13.1149 8.20852 13.0825 8.2794 13.0504C8.27271 12.9737 8.26625 12.8978 8.26013 12.8214C8.06445 10.314 8.39036 7.78478 9.21755 5.39077C9.82734 3.6295 11.0622 2.13805 12.6916 1.19888C14.3217 0.258585 16.2326 -0.064347 18.0636 0.289309C20.5542 0.771382 22.9087 1.75471 24.9833 3.17683C25.0468 3.22099 25.1089 3.26509 25.1721 3.30837C25.2356 3.26455 25.3004 3.21847 25.3633 3.17433C27.464 1.71433 29.8371 0.689478 32.3357 0.166383C34.1739 -0.219478 36.0782 0.0711119 37.6914 0.982859C39.3047 1.89461 40.5136 3.36427 41.0916 5.11495C41.8782 7.49472 42.158 10.0189 41.9167 12.5298C41.9097 12.6055 41.9013 12.6835 41.8937 12.7589C41.9633 12.7915 42.0337 12.8215 42.1045 12.8532ZM29.2068 24.8779C30.5757 22.5569 29.8021 19.6116 27.4788 18.2985C25.1554 16.9855 22.1629 17.8023 20.7941 20.1233C19.4255 22.4436 20.1988 25.3895 22.5221 26.7026C24.8454 28.0157 27.8382 27.1982 29.2068 24.8779ZM32.4223 42.4538C33.6991 42.6995 35.0279 42.4753 36.1635 41.8209C37.2985 41.1662 38.1601 40.1277 38.5852 38.9004C39.254 36.965 39.5482 34.926 39.4541 32.8933C37.8525 33.488 36.2058 33.955 34.5322 34.2903C33.7127 34.4534 32.8886 34.5989 32.0618 34.7234C31.5416 35.3744 31.0045 36.0159 30.4525 36.643C29.3259 37.9227 28.0981 39.1137 26.7808 40.2014C28.4952 41.2989 30.4082 42.0635 32.4223 42.4538ZM24.8551 38.8138C26.2477 37.707 27.5375 36.4811 28.711 35.1498C28.7222 35.1373 28.7337 35.1228 28.747 35.1092C27.4626 35.2171 26.174 35.276 24.887 35.2877C23.5997 35.2984 22.313 35.2622 21.0292 35.1764C21.0418 35.1896 21.0526 35.2032 21.0649 35.2154C22.2125 36.5287 23.4819 37.7325 24.8551 38.8138ZM17.72 34.8445C16.8949 34.7353 16.0738 34.605 15.257 34.4562C13.5889 34.1517 11.9507 33.7123 10.3599 33.144C10.2277 35.179 10.4863 37.2122 11.122 39.1369C11.5246 40.3569 12.3671 41.3811 13.4904 42.0159C14.6136 42.6508 15.941 42.8528 17.2216 42.5842C19.2422 42.1608 21.1706 41.3628 22.9045 40.2338C21.6055 39.1696 20.3985 38.0003 19.2951 36.7384C18.755 36.1204 18.2293 35.4894 17.72 34.8445ZM34.0574 32.0454C34.0753 32.042 34.0928 32.0391 34.111 32.0351C35.8511 31.6878 37.5597 31.1835 39.2144 30.5331C38.9634 28.8048 38.5552 27.1043 37.9918 25.4551C37.9859 25.4383 37.98 25.4214 37.9742 25.4046C37.4077 26.5565 36.7971 27.6888 36.1432 28.7974C35.4888 29.9056 34.7933 30.9892 34.0574 32.0454ZM40.2376 20.051C39.9588 20.8325 39.6598 21.6086 39.343 22.3769C39.6472 23.1383 39.9306 23.9097 40.196 24.686C40.7362 26.2724 41.1467 27.9013 41.4207 29.5576C43.2655 28.6221 44.9229 27.3522 46.301 25.8169C47.1743 24.8428 47.6622 23.5931 47.674 22.3036C47.6857 21.014 47.219 19.7751 46.3629 18.8161C45.0115 17.3035 43.378 16.0638 41.5486 15.1599C41.2459 16.8203 40.8064 18.4561 40.2376 20.051ZM13.1727 22.602C13.9288 24.3954 14.7948 26.1389 15.769 27.8241C16.7418 29.5077 17.8198 31.1304 18.9968 32.6797C20.9554 32.9025 22.93 33.005 24.9065 32.9883C26.8838 32.9713 28.8599 32.834 30.8245 32.5783C32.0281 31.006 33.1363 29.3655 34.139 27.6654C35.1424 25.9642 36.0389 24.2056 36.8281 22.3991C36.0724 20.6051 35.2058 18.8613 34.2322 17.1765C33.2593 15.4929 32.1807 13.8713 31.004 12.3214C29.0448 12.0997 27.0711 11.9955 25.0947 12.0123C23.1168 12.0289 21.1413 12.1665 19.1763 12.4228C17.9728 13.9952 16.8648 15.635 15.8618 17.3357C14.8591 19.0358 13.9619 20.7956 13.1727 22.602ZM38.0467 19.3211C38.6378 17.6605 39.0778 15.9536 39.3603 14.2202C37.7161 13.5984 36.017 13.1231 34.2814 12.8068C34.2641 12.803 34.2466 12.8007 34.229 12.796C34.9463 13.8412 35.6222 14.9141 36.2563 16.0108C36.8896 17.1078 37.4821 18.2291 38.0285 19.3724C38.0339 19.353 38.0412 19.3368 38.0467 19.3211ZM27.0964 4.76728C28.3957 5.83094 29.6016 7.00195 30.706 8.26218C31.2462 8.88021 31.7725 9.51148 32.2811 10.1561C33.1063 10.2653 33.9274 10.3955 34.7442 10.5444C36.4113 10.8506 38.0505 11.2883 39.6409 11.8571C39.7732 9.82215 39.5149 7.78831 38.8791 5.86367C38.4765 4.6437 37.6341 3.61948 36.5108 2.98464C35.3875 2.3498 34.0602 2.14772 32.7796 2.41639C30.7593 2.83918 28.8305 3.63772 27.0964 4.76728ZM21.2553 9.89199C22.5385 9.78345 23.8268 9.72511 25.1142 9.71289C26.4015 9.70213 27.6882 9.73837 28.972 9.82412C28.9594 9.811 28.9486 9.79738 28.9363 9.78514C27.7881 8.47159 26.5172 7.26912 25.1464 6.18615C23.7538 7.29298 22.464 8.51885 21.2905 9.85021C21.279 9.86328 21.2678 9.87723 21.2553 9.89199ZM17.5785 2.54735C16.3032 2.30174 14.9729 2.52579 13.8377 3.17962C12.7021 3.83401 11.8411 4.87285 11.416 6.10019C10.7471 8.0356 10.452 10.0762 10.5467 12.1078C12.1487 11.5125 13.7951 11.0461 15.4684 10.71C16.2885 10.5471 17.112 10.4013 17.9378 10.2786C18.4596 9.62615 18.9967 8.98467 19.5487 8.35758C20.6753 7.07784 21.9027 5.88743 23.2201 4.79973C21.506 3.70167 19.5919 2.9364 17.5785 2.54735ZM13.8585 16.2035C14.5124 15.0949 15.2082 14.0108 15.9446 12.9549C15.9268 12.9584 15.9089 12.9618 15.8911 12.9653C14.1509 13.3125 12.4418 13.8165 10.7873 14.4677C11.0387 16.1955 11.4475 17.8963 12.0103 19.5452C12.0158 19.5626 12.022 19.5789 12.0279 19.5957C12.5942 18.4429 13.205 17.3115 13.8585 16.2035ZM9.76361 24.9495C10.0424 24.1681 10.3413 23.3919 10.6567 22.6251C10.3534 21.862 10.0706 21.0909 9.8046 20.3143C9.26497 18.7282 8.85444 17.0992 8.58012 15.4435C6.73471 16.3802 5.0783 17.6484 3.70016 19.1837C2.82688 20.1577 2.33836 21.4071 2.32721 22.697C2.31515 23.9871 2.78332 25.2261 3.63794 26.185C4.98912 27.6967 6.62321 28.9368 8.45226 29.8412C8.75529 28.1802 9.19473 26.5445 9.76361 24.9495ZM11.9545 25.6795C11.3634 27.3401 10.9234 29.047 10.6409 30.7804C12.2836 31.4036 13.9842 31.8775 15.7198 32.1938C15.7371 32.1976 15.7546 32.1999 15.7721 32.2046C15.0549 31.1594 14.379 30.0864 13.7448 28.9897C13.1113 27.8934 12.5191 26.7715 11.9738 25.6288C11.967 25.6467 11.9599 25.6638 11.9545 25.6795Z" fill="#353748"/>
</svg>
