<svg width="50" height="45" viewBox="0 0 50 45" fill="none" xmlns="http://www.w3.org/2000/svg">
<rect x="9" y="41.087" width="32" height="3.91304" rx="1.95652" fill="#353748"/>
<path fill-rule="evenodd" clip-rule="evenodd" d="M0 3.99999C0 1.79086 1.79086 0 4 0H46C48.2091 0 50 1.79086 50 4V28.3696H0V3.99999ZM0 30.3261H50V35.1304C50 37.3396 48.2091 39.1304 46 39.1304H4C1.79086 39.1304 0 37.3396 0 35.1304V30.3261ZM25 36.1957C25.5523 36.1957 26 35.7577 26 35.2174C26 34.6771 25.5523 34.2391 25 34.2391C24.4477 34.2391 24 34.6771 24 35.2174C24 35.7577 24.4477 36.1957 25 36.1957Z" fill="#353748"/>
</svg>
