<svg width="26" height="45" viewBox="0 0 26 45" fill="none" xmlns="http://www.w3.org/2000/svg">
<path d="M20.0784 16.8253C19.6451 14.2167 17.3342 12.1299 14.4456 11.6082C9.53496 10.6952 5.20206 14.3471 5.77978 18.6512C4.72728 25.5 0.147003 25.4335 0.00257269 32.9983C-0.141857 39.1284 5.77978 44.8672 12.568 44.9976C19.9339 45.128 26 39.9109 26 33.2591C26 30.1289 24.7001 27.2595 22.5337 25.1726C20.0784 21 20.5116 18.7817 20.0784 16.8253Z" fill="#353748"/>
<path d="M13.1442 4.59728C14.4196 2.60234 18.3561 1.18494 18.3561 1.18494C18.3561 1.18494 18.965 4.9722 17.6896 6.96714C16.4141 8.96207 14.3627 10.0488 13.1075 9.39436C11.8523 8.73994 11.8688 6.59221 13.1442 4.59728Z" fill="#353748"/>
</svg>
