<svg width="45" height="45" viewBox="0 0 45 45" fill="none" xmlns="http://www.w3.org/2000/svg">
<path d="M3.90689 31.4774C2.5186 32.8434 3.60349 33.5671 4.24785 38.9037C5.1205 44.0157 -0.0373503 43.1201 0.000204127 44.8744C5.4239 45.5084 10.9347 43.6684 13.6158 41.0304C16.2968 38.3924 16.2968 34.1154 13.6158 31.4774C10.9347 28.8394 6.58793 28.8394 3.90689 31.4774Z" fill="#353748"/>
<path d="M43.3493 1.62422C41.0485 -0.639652 37.2828 -0.521514 35.1332 1.88197L17.5148 21.5814L23.0665 27.0439L43.0873 9.70839C45.53 7.59333 45.6501 3.8881 43.3493 1.62422Z" fill="#353748"/>
<path d="M21.7754 28.1618L16.3787 22.8517L14.6698 24.7624C13.3947 26.1881 13.4646 28.3433 14.8294 29.6862C16.1942 31.0291 18.3845 31.0978 19.8335 29.8432L21.7754 28.1618Z" fill="#353748"/>
</svg>
