<svg width="57" height="45" viewBox="0 0 57 45" fill="none" xmlns="http://www.w3.org/2000/svg">
<mask id="path-1-inside-1" fill="white">
<path fill-rule="evenodd" clip-rule="evenodd" d="M0 8C0 3.58172 3.58172 0 8 0H49C53.4183 0 57 3.58172 57 8V37C57 41.4183 53.4183 45 49 45H8C3.58172 45 0 41.4183 0 37V8ZM48 26H34C33.4477 26 33 26.4477 33 27V36C33 36.5523 33.4477 37 34 37H48C48.5523 37 49 36.5523 49 36V27C49 26.4477 48.5523 26 48 26ZM34 24C32.3431 24 31 25.3431 31 27V36C31 37.6569 32.3431 39 34 39H48C49.6569 39 51 37.6569 51 36V27C51 25.3431 49.6569 24 48 24H34ZM24 18L10 18C9.44772 18 9 17.5523 9 17L9 7.99999C9 7.44771 9.44772 7 10 7L24 7C24.5523 7 25 7.44771 25 8V17C25 17.5523 24.5523 18 24 18ZM27 17C27 18.6568 25.6569 20 24 20L10 20C8.34315 20 7 18.6568 7 17L7 7.99999C7 6.34314 8.34315 5 10 5L24 5C25.6569 5 27 6.34314 27 8V17ZM31 5.75C31 5.33579 31.3358 5 31.75 5H50.25C50.6642 5 51 5.33579 51 5.75C51 6.16421 50.6642 6.5 50.25 6.5H31.75C31.3358 6.5 31 6.16421 31 5.75ZM26.25 39C26.6642 39 27 38.6642 27 38.25C27 37.8358 26.6642 37.5 26.25 37.5L7.75 37.5C7.33579 37.5 7 37.8358 7 38.25C7 38.6642 7.33579 39 7.75 39L26.25 39ZM31 10.25C31 9.83579 31.3358 9.5 31.75 9.5H50.25C50.6642 9.5 51 9.83579 51 10.25C51 10.6642 50.6642 11 50.25 11H31.75C31.3358 11 31 10.6642 31 10.25ZM26.25 34.5C26.6642 34.5 27 34.1642 27 33.75C27 33.3358 26.6642 33 26.25 33H7.75C7.33579 33 7 33.3358 7 33.75C7 34.1642 7.33579 34.5 7.75 34.5L26.25 34.5ZM31 14.75C31 14.3358 31.3358 14 31.75 14H50.25C50.6642 14 51 14.3358 51 14.75C51 15.1642 50.6642 15.5 50.25 15.5H31.75C31.3358 15.5 31 15.1642 31 14.75ZM26.25 30C26.6642 30 27 29.6642 27 29.25C27 28.8358 26.6642 28.5 26.25 28.5L7.75 28.5C7.33579 28.5 7 28.8358 7 29.25C7 29.6642 7.33579 30 7.75 30L26.25 30ZM31 19.25C31 18.8358 31.3358 18.5 31.75 18.5H50.25C50.6642 18.5 51 18.8358 51 19.25C51 19.6642 50.6642 20 50.25 20H31.75C31.3358 20 31 19.6642 31 19.25ZM26.25 25.5C26.6642 25.5 27 25.1642 27 24.75C27 24.3358 26.6642 24 26.25 24L7.75 24C7.33579 24 7 24.3358 7 24.75C7 25.1642 7.33579 25.5 7.75 25.5L26.25 25.5Z"/>
</mask>
<path fill-rule="evenodd" clip-rule="evenodd" d="M0 8C0 3.58172 3.58172 0 8 0H49C53.4183 0 57 3.58172 57 8V37C57 41.4183 53.4183 45 49 45H8C3.58172 45 0 41.4183 0 37V8ZM48 26H34C33.4477 26 33 26.4477 33 27V36C33 36.5523 33.4477 37 34 37H48C48.5523 37 49 36.5523 49 36V27C49 26.4477 48.5523 26 48 26ZM34 24C32.3431 24 31 25.3431 31 27V36C31 37.6569 32.3431 39 34 39H48C49.6569 39 51 37.6569 51 36V27C51 25.3431 49.6569 24 48 24H34ZM24 18L10 18C9.44772 18 9 17.5523 9 17L9 7.99999C9 7.44771 9.44772 7 10 7L24 7C24.5523 7 25 7.44771 25 8V17C25 17.5523 24.5523 18 24 18ZM27 17C27 18.6568 25.6569 20 24 20L10 20C8.34315 20 7 18.6568 7 17L7 7.99999C7 6.34314 8.34315 5 10 5L24 5C25.6569 5 27 6.34314 27 8V17ZM31 5.75C31 5.33579 31.3358 5 31.75 5H50.25C50.6642 5 51 5.33579 51 5.75C51 6.16421 50.6642 6.5 50.25 6.5H31.75C31.3358 6.5 31 6.16421 31 5.75ZM26.25 39C26.6642 39 27 38.6642 27 38.25C27 37.8358 26.6642 37.5 26.25 37.5L7.75 37.5C7.33579 37.5 7 37.8358 7 38.25C7 38.6642 7.33579 39 7.75 39L26.25 39ZM31 10.25C31 9.83579 31.3358 9.5 31.75 9.5H50.25C50.6642 9.5 51 9.83579 51 10.25C51 10.6642 50.6642 11 50.25 11H31.75C31.3358 11 31 10.6642 31 10.25ZM26.25 34.5C26.6642 34.5 27 34.1642 27 33.75C27 33.3358 26.6642 33 26.25 33H7.75C7.33579 33 7 33.3358 7 33.75C7 34.1642 7.33579 34.5 7.75 34.5L26.25 34.5ZM31 14.75C31 14.3358 31.3358 14 31.75 14H50.25C50.6642 14 51 14.3358 51 14.75C51 15.1642 50.6642 15.5 50.25 15.5H31.75C31.3358 15.5 31 15.1642 31 14.75ZM26.25 30C26.6642 30 27 29.6642 27 29.25C27 28.8358 26.6642 28.5 26.25 28.5L7.75 28.5C7.33579 28.5 7 28.8358 7 29.25C7 29.6642 7.33579 30 7.75 30L26.25 30ZM31 19.25C31 18.8358 31.3358 18.5 31.75 18.5H50.25C50.6642 18.5 51 18.8358 51 19.25C51 19.6642 50.6642 20 50.25 20H31.75C31.3358 20 31 19.6642 31 19.25ZM26.25 25.5C26.6642 25.5 27 25.1642 27 24.75C27 24.3358 26.6642 24 26.25 24L7.75 24C7.33579 24 7 24.3358 7 24.75C7 25.1642 7.33579 25.5 7.75 25.5L26.25 25.5Z" fill="#353748"/>
<path d="M10 18L10 14H10V18ZM24 18V22V18ZM9 17H5H9ZM9 7.99999L13 7.99999V7.99999H9ZM10 7V3V7ZM24 7L24 3H24V7ZM24 20V24V20ZM10 20L10 16H10V20ZM7 17L11 17V17H7ZM7 7.99999L3 7.99999V7.99999H7ZM10 5V0.999995V5ZM24 5L24 0.999996H24V5ZM26.25 39V43V39ZM26.25 37.5V41.5V37.5ZM7.75 37.5L7.75 33.5H7.75V37.5ZM7.75 39L7.75 35H7.75V39ZM26.25 34.5V38.5V34.5ZM7.75 34.5L7.75 30.5H7.75V34.5ZM26.25 30V34V30ZM26.25 28.5V32.5V28.5ZM7.75 28.5L7.75 24.5H7.75V28.5ZM7.75 30L7.75 26H7.75V30ZM26.25 25.5V29.5V25.5ZM26.25 24V28V24ZM7.75 24L7.75 20H7.75V24ZM7.75 25.5L7.75 21.5H7.75V25.5ZM8 -4C1.37258 -4 -4 1.37258 -4 8H4C4 5.79086 5.79086 4 8 4V-4ZM49 -4H8V4H49V-4ZM61 8C61 1.37258 55.6274 -4 49 -4V4C51.2091 4 53 5.79086 53 8H61ZM61 37V8H53V37H61ZM49 49C55.6274 49 61 43.6274 61 37H53C53 39.2091 51.2091 41 49 41V49ZM8 49H49V41H8V49ZM-4 37C-4 43.6274 1.37258 49 8 49V41C5.79086 41 4 39.2091 4 37H-4ZM-4 8V37H4V8H-4ZM34 30H48V22H34V30ZM37 27C37 28.6569 35.6569 30 34 30V22C31.2386 22 29 24.2386 29 27H37ZM37 36V27H29V36H37ZM34 33C35.6569 33 37 34.3431 37 36H29C29 38.7614 31.2386 41 34 41V33ZM48 33H34V41H48V33ZM45 36C45 34.3431 46.3431 33 48 33V41C50.7614 41 53 38.7614 53 36H45ZM45 27V36H53V27H45ZM48 30C46.3431 30 45 28.6569 45 27H53C53 24.2386 50.7614 22 48 22V30ZM35 27C35 27.5523 34.5523 28 34 28V20C30.134 20 27 23.134 27 27H35ZM35 36V27H27V36H35ZM34 35C34.5523 35 35 35.4477 35 36H27C27 39.866 30.134 43 34 43V35ZM48 35H34V43H48V35ZM47 36C47 35.4477 47.4477 35 48 35V43C51.866 43 55 39.866 55 36H47ZM47 27V36H55V27H47ZM48 28C47.4477 28 47 27.5523 47 27H55C55 23.134 51.866 20 48 20V28ZM34 28H48V20H34V28ZM10 22L24 22V14L10 14L10 22ZM5 17C5 19.7614 7.23859 22 10 22V14C11.6569 14 13 15.3431 13 17H5ZM5 7.99999L5 17H13L13 7.99999L5 7.99999ZM10 3C7.23858 3 5 5.23857 5 7.99999H13C13 9.65685 11.6569 11 10 11V3ZM24 3L10 3V11L24 11V3ZM29 8C29 5.23858 26.7614 3 24 3L24 11C22.3431 11 21 9.65684 21 8H29ZM29 17V8H21V17H29ZM24 22C26.7614 22 29 19.7614 29 17H21C21 15.3431 22.3431 14 24 14V22ZM24 24C27.866 24 31 20.866 31 17H23C23 16.4477 23.4477 16 24 16V24ZM10 24L24 24V16L10 16L10 24ZM3 17C3 20.866 6.13401 24 10 24V16C10.5523 16 11 16.4477 11 17L3 17ZM3 7.99999L3 17H11V7.99999H3ZM10 0.999995C6.13401 0.999995 3.00001 4.134 3 7.99999L11 7.99999C11 8.55228 10.5523 9 10 9V0.999995ZM24 0.999996L10 0.999995V9L24 9V0.999996ZM31 8C31 4.134 27.866 0.999997 24 0.999996L24 9C23.4477 9 23 8.55228 23 8H31ZM31 17V8H23V17H31ZM31.75 1C29.1267 1 27 3.12664 27 5.75H35C35 7.54493 33.5449 9 31.75 9V1ZM50.25 1H31.75V9H50.25V1ZM55 5.75C55 3.12664 52.8733 1 50.25 1V9C48.4551 9 47 7.54494 47 5.75H55ZM50.25 10.5C52.8733 10.5 55 8.37336 55 5.75H47C47 3.95507 48.4551 2.5 50.25 2.5V10.5ZM31.75 10.5H50.25V2.5H31.75V10.5ZM27 5.75C27 8.37335 29.1266 10.5 31.75 10.5V2.5C33.5449 2.5 35 3.95507 35 5.75H27ZM23 38.25C23 36.4551 24.4551 35 26.25 35V43C28.8734 43 31 40.8733 31 38.25H23ZM26.25 41.5C24.4551 41.5 23 40.0449 23 38.25H31C31 35.6266 28.8733 33.5 26.25 33.5V41.5ZM7.75 41.5L26.25 41.5V33.5L7.75 33.5L7.75 41.5ZM11 38.25C11 40.0449 9.54494 41.5 7.75 41.5V33.5C5.12664 33.5 3 35.6267 3 38.25H11ZM7.75 35C9.54492 35 11 36.4551 11 38.25H3C3 40.8734 5.12666 43 7.75 43V35ZM26.25 35L7.75 35L7.75 43L26.25 43V35ZM31.75 5.5C29.1266 5.5 27 7.62666 27 10.25H35C35 12.0449 33.5449 13.5 31.75 13.5V5.5ZM50.25 5.5H31.75V13.5H50.25V5.5ZM55 10.25C55 7.62665 52.8734 5.5 50.25 5.5V13.5C48.4551 13.5 47 12.0449 47 10.25H55ZM50.25 15C52.8734 15 55 12.8734 55 10.25H47C47 8.45508 48.4551 7 50.25 7V15ZM31.75 15H50.25V7H31.75V15ZM27 10.25C27 12.8733 29.1266 15 31.75 15V7C33.5449 7 35 8.45508 35 10.25H27ZM23 33.75C23 31.9551 24.4551 30.5 26.25 30.5V38.5C28.8734 38.5 31 36.3733 31 33.75H23ZM26.25 37C24.4551 37 23 35.5449 23 33.75H31C31 31.1266 28.8734 29 26.25 29V37ZM7.75 37H26.25V29H7.75V37ZM11 33.75C11 35.5449 9.54492 37 7.75 37V29C5.12666 29 3 31.1266 3 33.75H11ZM7.75 30.5C9.54492 30.5 11 31.9551 11 33.75H3C3 36.3734 5.12666 38.5 7.75 38.5V30.5ZM26.25 30.5L7.75 30.5L7.75 38.5L26.25 38.5V30.5ZM31.75 10C29.1267 10 27 12.1266 27 14.75H35C35 16.5449 33.5449 18 31.75 18V10ZM50.25 10H31.75V18H50.25V10ZM55 14.75C55 12.1266 52.8733 10 50.25 10V18C48.4551 18 47 16.5449 47 14.75H55ZM50.25 19.5C52.8733 19.5 55 17.3734 55 14.75H47C47 12.9551 48.4551 11.5 50.25 11.5V19.5ZM31.75 19.5H50.25V11.5H31.75V19.5ZM27 14.75C27 17.3734 29.1266 19.5 31.75 19.5V11.5C33.5449 11.5 35 12.9551 35 14.75H27ZM23 29.25C23 27.4551 24.4551 26 26.25 26V34C28.8734 34 31 31.8733 31 29.25H23ZM26.25 32.5C24.4551 32.5 23 31.0449 23 29.25H31C31 26.6266 28.8734 24.5 26.25 24.5V32.5ZM7.75 32.5H26.25V24.5L7.75 24.5L7.75 32.5ZM11 29.25C11 31.0449 9.54493 32.5 7.75 32.5V24.5C5.12665 24.5 3 26.6266 3 29.25H11ZM7.75 26C9.54492 26 11 27.4551 11 29.25H3C3 31.8734 5.12666 34 7.75 34V26ZM26.25 26L7.75 26L7.75 34H26.25V26ZM31.75 14.5C29.1266 14.5 27 16.6266 27 19.25H35C35 21.0449 33.5449 22.5 31.75 22.5V14.5ZM50.25 14.5H31.75V22.5H50.25V14.5ZM55 19.25C55 16.6266 52.8733 14.5 50.25 14.5V22.5C48.4551 22.5 47 21.0449 47 19.25H55ZM50.25 24C52.8733 24 55 21.8734 55 19.25H47C47 17.4551 48.4551 16 50.25 16V24ZM31.75 24H50.25V16H31.75V24ZM27 19.25C27 21.8734 29.1266 24 31.75 24V16C33.5449 16 35 17.4551 35 19.25H27ZM23 24.75C23 22.9551 24.4551 21.5 26.25 21.5V29.5C28.8734 29.5 31 27.3733 31 24.75H23ZM26.25 28C24.4551 28 23 26.5449 23 24.75H31C31 22.1266 28.8734 20 26.25 20V28ZM7.75 28L26.25 28V20L7.75 20L7.75 28ZM11 24.75C11 26.5449 9.54493 28 7.75 28V20C5.12665 20 3 22.1266 3 24.75H11ZM7.75 21.5C9.54492 21.5 11 22.9551 11 24.75H3C3 27.3734 5.12666 29.5 7.75 29.5V21.5ZM26.25 21.5L7.75 21.5L7.75 29.5L26.25 29.5V21.5Z" fill="#353748" mask="url(#path-1-inside-1)"/>
</svg>
