<svg width="50" height="45" viewBox="0 0 50 45" fill="none" xmlns="http://www.w3.org/2000/svg">
<path fill-rule="evenodd" clip-rule="evenodd" d="M18.625 3H31.375C32.8247 3 34 4.17525 34 5.625H16C16 4.17525 17.1753 3 18.625 3ZM13 5.625C13 2.5184 15.5184 0 18.625 0H31.375C34.4816 0 37 2.5184 37 5.625H48C49.1046 5.625 50 6.52043 50 7.625V45H0V7.625C0 6.52043 0.895431 5.625 2 5.625H13ZM5 14C5 13.4477 5.44772 13 6 13H44C44.5523 13 45 13.4477 45 14C45 14.5523 44.5523 15 44 15H6C5.44771 15 5 14.5523 5 14Z" fill="#353748"/>
</svg>
