
<svg width="15" height="15" viewBox="0 0 1042 1042" fill="none" xmlns="http://www.w3.org/2000/svg">
    <g clip-path="url(#clip0)">
        <path d="M887.328 366.328H8.14062V1033.86H887.328V366.328Z" fill="url(#paint0_linear)" />
        <path
            d="M854.766 879.188C953.676 879.188 1033.86 799.004 1033.86 700.094C1033.86 601.183 953.676 521 854.766 521C755.855 521 675.672 601.183 675.672 700.094C675.672 799.004 755.855 879.188 854.766 879.188Z"
            fill="url(#paint1_linear)" />
        <path d="M887.328 993.156H8.14062V1033.86H887.328V993.156Z" fill="#D8A353" />
        <path
            d="M854.767 879.188C829.874 879.189 805.255 874.001 782.48 863.955C759.705 853.909 739.274 839.226 722.491 820.842C705.709 802.458 692.942 780.778 685.007 757.184C677.072 733.59 674.143 708.602 676.406 683.812C680.445 728.327 700.983 769.722 733.985 799.866C766.988 830.01 810.07 846.723 854.767 846.723C899.464 846.723 942.545 830.01 975.548 799.866C1008.55 769.722 1029.09 728.327 1033.13 683.812C1035.39 708.602 1032.46 733.59 1024.53 757.184C1016.59 780.778 1003.83 802.458 987.042 820.842C970.259 839.226 949.829 853.909 927.053 863.955C904.278 874.001 879.659 879.189 854.767 879.188Z"
            fill="#7ECE67" />
        <path
            d="M887.327 876.175V908.738C860.136 913.767 832.151 912.431 805.563 904.835C778.975 897.239 754.506 883.59 734.076 864.957C713.645 846.324 697.806 823.213 687.8 797.435C677.794 771.657 673.894 743.913 676.403 716.375C678.671 741.174 686.085 765.227 698.172 786.998C710.259 808.77 726.753 827.782 746.602 842.82C766.451 857.858 789.217 868.591 813.448 874.334C837.678 880.078 862.84 880.705 887.327 876.175Z"
            fill="#D8A353" />
        <path
            d="M757.078 244.219L887.328 366.328L536.549 691.139C512.436 713.616 480.698 726.115 447.734 726.115C414.77 726.115 383.032 713.616 358.92 691.139L8.14062 366.328L138.391 244.219H757.078Z"
            fill="url(#paint2_linear)" />
        <path
            d="M887.328 366.328L536.549 691.139C512.436 713.616 480.698 726.115 447.734 726.115C414.77 726.115 383.032 713.616 358.92 691.139L8.14062 366.328L29.9575 345.813C383.261 672.985 368.119 663.949 400.03 676.323C422.909 685.334 447.871 687.685 472.03 683.104C496.189 678.523 518.557 667.197 536.549 650.436L865.511 345.813L887.328 366.328Z"
            fill="#CBA07A" />
        <path
            d="M757.078 8.14062V486.972L536.549 691.139C518.557 707.9 496.189 719.226 472.03 723.808C447.871 728.389 422.909 726.038 400.03 717.026C369.747 705.304 382.609 713.119 138.391 486.972V8.14062H757.078Z"
            fill="url(#paint3_linear)" />
        <path
            d="M602.406 455.875C573.426 407.52 577.984 369.177 577.984 313.007C578.142 283.208 568.345 254.21 550.146 230.614C531.948 207.018 506.39 190.174 477.529 182.757C482.929 176.955 486.518 169.703 487.854 161.89C489.191 154.078 488.218 146.045 485.054 138.778C481.89 131.51 476.673 125.325 470.044 120.981C463.414 116.637 455.66 114.323 447.734 114.323C439.808 114.323 432.055 116.637 425.425 120.981C418.796 125.325 413.579 131.51 410.415 138.778C407.251 146.045 406.278 154.078 407.614 161.89C408.951 169.703 412.54 176.955 417.94 182.757C389.389 189.466 363.938 205.614 345.707 228.588C327.476 251.561 317.532 280.015 317.484 309.344C317.484 367.386 322.287 407.031 293.062 455.875C286.585 455.875 280.374 458.448 275.794 463.028C271.214 467.608 268.641 473.82 268.641 480.297C268.641 486.774 271.214 492.986 275.794 497.566C280.374 502.146 286.585 504.719 293.062 504.719H410.369C407.694 510.911 406.6 517.671 407.185 524.392C407.77 531.112 410.016 537.581 413.721 543.218C417.427 548.855 422.475 553.483 428.412 556.685C434.349 559.887 440.989 561.564 447.734 561.564C454.48 561.564 461.12 559.887 467.057 556.685C472.994 553.483 478.042 548.855 481.747 543.218C485.453 537.581 487.699 531.112 488.284 524.392C488.869 517.671 487.775 510.911 485.1 504.719H602.406C608.883 504.719 615.095 502.146 619.675 497.566C624.255 492.986 626.828 486.774 626.828 480.297C626.828 473.82 624.255 467.608 619.675 463.028C615.095 458.448 608.883 455.875 602.406 455.875V455.875ZM433.081 173.965C428.981 170.89 425.952 166.602 424.423 161.709C422.895 156.817 422.945 151.567 424.566 146.705C426.187 141.842 429.296 137.612 433.455 134.615C437.613 131.618 442.609 130.006 447.734 130.006C452.86 130.006 457.856 131.618 462.014 134.615C466.172 137.612 469.282 141.842 470.903 146.705C472.524 151.567 472.574 156.817 471.045 161.709C469.517 166.602 466.488 170.89 462.387 173.965C461.449 174.621 460.659 175.468 460.07 176.449C459.481 177.431 459.106 178.527 458.968 179.663C451.479 178.753 443.908 178.753 436.419 179.663C436.292 178.533 435.929 177.442 435.354 176.461C434.779 175.479 434.005 174.629 433.081 173.965Z"
            fill="#C7CDD8" />
        <path
            d="M757.078 446.188V486.891L536.549 691.139C518.557 707.901 496.189 719.227 472.03 723.808C447.871 728.389 422.909 726.038 400.03 717.027C369.747 705.304 382.609 713.119 138.391 486.973V446.269L358.92 650.436C383.032 672.914 414.77 685.412 447.734 685.412C480.698 685.412 512.436 672.914 536.549 650.436L757.078 446.188Z"
            fill="#C7CDD8" />
        <path
            d="M577.984 343.29V288.585C577.984 218.494 524.093 158.335 454.003 154.835C436.392 153.986 418.792 156.722 402.269 162.877C385.747 169.031 370.646 178.476 357.882 190.639C345.117 202.802 334.955 217.43 328.011 233.636C321.067 249.843 317.486 267.291 317.484 284.922C317.484 344.593 322.206 382.609 293.062 431.453H602.406C586.43 404.82 577.989 374.347 577.984 343.29V343.29Z"
            fill="url(#paint4_linear)" />
        <path
            d="M602.406 431.453H293.062C299.22 421.151 304.294 410.238 308.204 398.891H587.265C591.175 410.238 596.249 421.151 602.406 431.453V431.453Z"
            fill="#D8A353" />
        <path
            d="M485.1 480.297C487.775 486.489 488.869 493.25 488.284 499.97C487.699 506.69 485.453 513.16 481.747 518.796C478.042 524.433 472.994 529.061 467.057 532.263C461.12 535.466 454.48 537.142 447.734 537.142C440.989 537.142 434.349 535.466 428.412 532.263C422.475 529.061 417.427 524.433 413.721 518.796C410.016 513.16 407.77 506.69 407.185 499.97C406.6 493.25 407.694 486.489 410.369 480.297"
            fill="#D8A353" />
        <path
            d="M602.406 480.297H293.062C286.585 480.297 280.374 477.724 275.794 473.144C271.214 468.564 268.641 462.352 268.641 455.875C268.641 449.398 271.214 443.186 275.794 438.606C280.374 434.026 286.585 431.453 293.062 431.453H602.406C608.883 431.453 615.095 434.026 619.675 438.606C624.255 443.186 626.828 449.398 626.828 455.875C626.828 462.352 624.255 468.564 619.675 473.144C615.095 477.724 608.883 480.297 602.406 480.297V480.297Z"
            fill="url(#paint5_linear)" />
        <path
            d="M293.061 488.438H399.459C398.386 495.399 398.832 502.51 400.765 509.283C402.698 516.056 406.073 522.33 410.658 527.676C415.244 533.023 420.931 537.314 427.33 540.256C433.73 543.198 440.69 544.721 447.733 544.721C454.776 544.721 461.736 543.198 468.136 540.256C474.535 537.314 480.222 533.023 484.808 527.676C489.393 522.33 492.768 516.056 494.701 509.283C496.634 502.51 497.08 495.399 496.007 488.438H602.405C611.041 489.129 619.598 486.361 626.193 480.743C632.788 475.125 636.881 467.117 637.572 458.481C638.263 449.845 635.495 441.288 629.877 434.693C624.259 428.097 616.251 424.004 607.615 423.313C582.135 378.784 586.124 345.082 586.124 288.586C586.454 257.468 576.499 227.112 557.803 202.234C539.108 177.355 512.719 159.348 482.738 151.009C486.326 144.823 488.222 137.8 488.233 130.648C488.244 123.496 486.37 116.468 482.8 110.27C479.231 104.073 474.091 98.9253 467.899 95.3462C461.707 91.767 454.681 89.8826 447.529 89.8826C440.378 89.8826 433.352 91.767 427.16 95.3462C420.968 98.9253 415.828 104.073 412.259 110.27C408.689 116.468 406.815 123.496 406.826 130.648C406.837 137.8 408.733 144.823 412.321 151.009C389.65 156.973 368.866 168.598 351.918 184.793C272.954 260.501 338.16 334.906 287.851 423.313C279.215 424.004 271.207 428.097 265.589 434.693C259.971 441.288 257.203 449.845 257.894 458.481C258.585 467.117 262.678 475.125 269.273 480.743C275.868 486.361 284.425 489.129 293.061 488.438ZM447.733 529.141C442.779 529.113 437.897 527.955 433.459 525.754C429.02 523.554 425.142 520.371 422.12 516.446C419.097 512.52 417.01 507.958 416.018 503.104C415.025 498.251 415.153 493.235 416.392 488.438H479.074C480.313 493.235 480.441 498.251 479.448 503.104C478.456 507.958 476.369 512.52 473.346 516.446C470.324 520.371 466.446 523.554 462.007 525.754C457.569 527.955 452.687 529.113 447.733 529.141ZM447.733 105.829C452.485 105.958 457.097 107.471 461.001 110.183C464.906 112.895 467.935 116.687 469.715 121.095C471.496 125.503 471.951 130.335 471.025 134.998C470.099 139.661 467.832 143.953 464.503 147.346C453.377 145.79 442.089 145.79 430.963 147.346C427.634 143.953 425.367 139.661 424.441 134.998C423.515 130.335 423.97 125.503 425.751 121.095C427.531 116.687 430.56 112.895 434.464 110.183C438.369 107.471 442.981 105.958 447.733 105.829V105.829ZM363.559 196.678C440.976 122.843 569.842 177.466 569.842 288.586C569.842 344.024 566.098 378.133 588.566 423.15H307.063C351.267 333.766 293.712 263.35 363.559 196.678ZM293.061 439.594H602.405C606.723 439.594 610.864 441.31 613.917 444.363C616.971 447.416 618.686 451.558 618.686 455.876C618.686 460.194 616.971 464.335 613.917 467.388C610.864 470.442 606.723 472.157 602.405 472.157H293.061C288.743 472.157 284.602 470.442 281.549 467.388C278.495 464.335 276.78 460.194 276.78 455.876C276.78 451.558 278.495 447.416 281.549 444.363C284.602 441.31 288.743 439.594 293.061 439.594Z"
            fill="#47566A" />
        <path
            d="M1042 700.094C1041.94 657.514 1027.41 616.219 1000.78 582.992C974.152 549.766 937.014 526.584 895.468 517.255C895.468 354.443 896.12 364.944 893.84 361.688C891.561 358.432 905.481 372.108 765.218 240.637V8.14062C765.218 5.9816 764.361 3.911 762.834 2.38433C761.307 0.857671 759.237 0 757.078 0L138.39 0C136.231 0 134.161 0.857671 132.634 2.38433C131.107 3.911 130.25 5.9816 130.25 8.14062V240.637C-44.7737 404.589 13.9202 348.337 2.19766 360.63C-1.54702 364.456 -0.163118 352.489 -0.163118 1033.86C-0.163118 1036.02 0.694553 1038.09 2.22122 1039.62C3.74788 1041.14 5.81848 1042 7.97751 1042H887.328C889.487 1042 891.557 1041.14 893.084 1039.62C894.611 1038.09 895.468 1036.02 895.468 1033.86V882.932C937.014 873.603 974.152 850.422 1000.78 817.195C1027.41 783.969 1041.94 742.674 1042 700.094V700.094ZM875.117 366.328L765.218 467.923V263.431L875.117 366.328ZM748.937 16.2812V483.309L530.85 685.115C508.261 706.103 478.568 717.768 447.734 717.768C416.9 717.768 387.207 706.103 364.618 685.115L146.531 483.309V16.2812H748.937ZM16.2809 385.377C39.3189 406.461 346.953 691.953 356.966 700.094L16.2809 1018.15V385.377ZM370.154 711.002C392.961 726.517 419.906 734.813 447.49 734.813C475.073 734.813 502.019 726.517 524.826 711.002L862.906 1025.72H32.5622L370.154 711.002ZM130.25 467.923L20.3513 366.328L130.25 263.431V467.923ZM879.187 1018.15L538.502 700.094C559.668 681.859 472.156 762.044 879.187 385.377V514.325C852.833 511.008 826.075 513.337 800.69 521.156C775.306 528.975 751.875 542.106 731.955 559.676C712.035 577.247 696.081 598.855 685.153 623.064C674.226 647.274 668.574 673.532 668.574 700.094C668.574 726.656 674.226 752.913 685.153 777.123C696.081 801.333 712.035 822.941 731.955 840.511C751.875 858.081 775.306 871.212 800.69 879.031C826.075 886.851 852.833 889.179 879.187 885.863V1018.15ZM854.765 871.047C820.954 871.047 787.902 861.021 759.789 842.236C731.676 823.452 709.764 796.752 696.825 765.515C683.886 734.277 680.501 699.904 687.097 666.742C693.693 633.581 709.975 603.12 733.883 579.212C757.791 555.303 788.252 539.022 821.414 532.425C854.576 525.829 888.949 529.215 920.186 542.154C951.424 555.093 978.123 577.004 996.908 605.117C1015.69 633.23 1025.72 666.282 1025.72 700.094C1025.72 745.433 1007.71 788.916 975.647 820.976C943.587 853.036 900.105 871.047 854.765 871.047Z"
            fill="#47566A" />
        <path
            d="M946.59 629.107L822.201 753.496L762.937 694.232C761.383 692.677 759.275 691.804 757.076 691.804C754.878 691.804 752.769 692.677 751.215 694.232C749.66 695.786 748.787 697.895 748.787 700.093C748.787 702.292 749.66 704.4 751.215 705.954C821.469 776.208 817.317 773.522 822.201 773.522C827.086 773.522 815.689 783.453 958.312 640.83C959.867 639.275 960.74 637.167 960.74 634.968C960.74 632.77 959.867 630.662 958.312 629.107C956.758 627.553 954.65 626.679 952.451 626.679C950.253 626.679 948.144 627.553 946.59 629.107Z"
            fill="#47566A" />
    </g>
    <defs>
        <linearGradient id="paint0_linear" x1="447.734" y1="1033.86" x2="447.734" y2="366.328"
            gradientUnits="userSpaceOnUse">
            <stop stop-color="#FBCC88" />
            <stop offset="1" stop-color="#FFE5C3" />
        </linearGradient>
        <linearGradient id="paint1_linear" x1="854.766" y1="879.188" x2="854.766" y2="521"
            gradientUnits="userSpaceOnUse">
            <stop stop-color="#8CDD79" />
            <stop offset="1" stop-color="#D4E6B6" />
        </linearGradient>
        <linearGradient id="paint2_linear" x1="447.734" y1="726.144" x2="447.734" y2="244.219"
            gradientUnits="userSpaceOnUse">
            <stop stop-color="#D1A788" />
            <stop offset="1" stop-color="#F2D3B8" />
        </linearGradient>
        <linearGradient id="paint3_linear" x1="447.734" y1="726.144" x2="447.734" y2="8.14062"
            gradientUnits="userSpaceOnUse">
            <stop stop-color="#DDE1E8" />
            <stop offset="1" stop-color="#F3F4F5" />
        </linearGradient>
        <linearGradient id="paint4_linear" x1="293.062" y1="14823.5" x2="16210.1" y2="3825.78"
            gradientUnits="userSpaceOnUse">
            <stop stop-color="#FBCC88" />
            <stop offset="1" stop-color="#FFE5C3" />
        </linearGradient>
        <linearGradient id="paint5_linear" x1="268.641" y1="3313.23" x2="12424" y2="-6411.04"
            gradientUnits="userSpaceOnUse">
            <stop stop-color="#FBCC88" />
            <stop offset="1" stop-color="#FFE5C3" />
        </linearGradient>
        <clipPath id="clip0">
            <rect width="1042" height="1042" fill="white" />
        </clipPath>
    </defs>
</svg>