
<svg width="1895" height="1600" viewBox="0 0 1895 1600" fill="none" xmlns="http://www.w3.org/2000/svg">
<path fill-rule="evenodd" clip-rule="evenodd" d="M771.418 23.8517L1131.17 -183.851C1152.37 -196.093 1177.98 -191.364 1188.28 -173.524L1313.28 42.9824C1323.65 60.9322 1314.74 85.4399 1293.67 97.6068L933.918 305.31C912.715 317.552 887.106 312.823 876.806 294.982L751.806 78.4761C741.471 60.5753 750.292 36.0491 771.418 23.8517ZM1049.54 88.285L1138.37 -159.142L789.339 42.3725L1049.54 88.285ZM779.909 68.0904L899.792 275.734L962.76 100.354L779.909 68.0904ZM989.722 105.111L926.715 280.601L1275.87 79.0141L1093.39 46.015L1071.86 105.972C1069.31 113.062 1061.25 117.733 1053.83 116.423L989.722 105.111ZM1102.63 20.265L1285.12 53.2642L1165.3 -154.275L1102.63 20.265Z" fill="url(#paint0_linear)"/>
<path fill-rule="evenodd" clip-rule="evenodd" d="M132.292 392.852L492.044 185.149C513.248 172.907 538.857 177.636 549.157 195.476L674.157 411.982C684.52 429.932 675.618 454.44 654.544 466.607L294.792 674.31C273.589 686.552 247.98 681.823 237.68 663.982L112.68 447.476C102.345 429.575 111.166 405.049 132.292 392.852ZM410.412 457.285L499.247 209.858L150.213 411.372L410.412 457.285ZM140.783 437.09L260.666 644.734L323.634 469.354L140.783 437.09ZM350.596 474.111L287.589 649.601L636.748 448.014L454.259 415.015L432.732 474.972C430.187 482.062 422.128 486.733 414.707 485.423L350.596 474.111ZM463.504 389.265L645.993 422.264L526.17 214.725L463.504 389.265Z" fill="url(#paint1_linear)"/>
<path fill-rule="evenodd" clip-rule="evenodd" d="M384.115 738.209L24.3623 945.912C3.23583 958.11 -5.58489 982.636 4.75011 1000.54L129.75 1217.04C140.05 1234.88 165.659 1239.61 186.862 1227.37L546.615 1019.67C567.688 1007.5 576.59 982.993 566.227 965.043L441.227 748.537C430.927 730.696 405.318 725.967 384.115 738.209ZM391.317 762.918L302.482 1010.35L42.2833 964.433L391.317 762.918ZM152.737 1197.79L32.8537 990.151L215.704 1022.41L152.737 1197.79ZM179.659 1202.66L242.666 1027.17L306.777 1038.48C314.199 1039.79 322.258 1035.12 324.803 1028.03L346.329 968.076L528.818 1001.07L179.659 1202.66ZM538.063 975.325L355.575 942.326L418.24 767.785L538.063 975.325Z" fill="url(#paint2_linear)"/>
<path fill-rule="evenodd" clip-rule="evenodd" d="M663.489 576.912L1023.24 369.209C1044.44 356.967 1070.05 361.696 1080.35 379.537L1205.35 596.043C1215.72 613.993 1206.82 638.5 1185.74 650.667L825.989 858.37C804.786 870.612 779.177 865.883 768.877 848.043L643.877 631.537C633.542 613.636 642.363 589.11 663.489 576.912ZM941.609 641.346L1030.44 393.918L681.41 595.433L941.609 641.346ZM671.981 621.151L791.864 828.794L854.831 653.415L671.981 621.151ZM881.793 658.172L818.786 833.662L1167.95 632.075L985.456 599.076L963.93 659.032C961.385 666.122 953.326 670.794 945.904 669.484L881.793 658.172ZM994.702 573.326L1177.19 606.325L1057.37 398.785L994.702 573.326Z" fill="url(#paint3_linear)"/>
<path fill-rule="evenodd" clip-rule="evenodd" d="M1662.37 0.209122L1302.62 207.912C1281.49 220.11 1272.67 244.636 1283 262.537L1408 479.043C1418.3 496.883 1443.91 501.612 1465.12 489.37L1824.87 281.667C1845.94 269.5 1854.84 244.993 1844.48 227.043L1719.48 10.5366C1709.18 -7.30348 1683.57 -12.0326 1662.37 0.209122ZM1669.57 24.9182L1580.74 272.346L1320.54 226.433L1669.57 24.9182ZM1430.99 459.794L1311.11 252.151L1493.96 284.415L1430.99 459.794ZM1457.91 464.662L1520.92 289.172L1585.03 300.484C1592.45 301.793 1600.51 297.122 1603.06 290.032L1624.58 230.076L1807.07 263.075L1457.91 464.662ZM1816.32 237.325L1633.83 204.326L1696.49 29.7854L1816.32 237.325Z" fill="url(#paint4_linear)"/>
<path fill-rule="evenodd" clip-rule="evenodd" d="M449.362 1682.03L809.115 1474.33C830.318 1462.09 855.927 1466.82 866.227 1484.66L991.227 1701.17C1001.59 1719.11 992.688 1743.62 971.615 1755.79L611.862 1963.49C590.659 1975.73 565.05 1971.01 554.75 1953.17L429.75 1736.66C419.415 1718.76 428.236 1694.23 449.362 1682.03ZM727.482 1746.47L816.317 1499.04L467.283 1700.56L727.482 1746.47ZM457.854 1726.27L577.737 1933.92L640.704 1758.54L457.854 1726.27ZM667.666 1763.29L604.659 1938.78L953.818 1737.2L771.329 1704.2L749.803 1764.15C747.258 1771.24 739.199 1775.92 731.777 1774.61L667.666 1763.29ZM780.575 1678.45L963.063 1711.45L843.24 1503.91L780.575 1678.45Z" fill="url(#paint5_linear)"/>
<path fill-rule="evenodd" clip-rule="evenodd" d="M1448.24 1105.33L1088.49 1313.03C1067.36 1325.23 1058.54 1349.76 1068.88 1367.66L1193.88 1584.17C1204.18 1602.01 1229.79 1606.73 1250.99 1594.49L1610.74 1386.79C1631.82 1374.62 1640.72 1350.11 1630.35 1332.17L1505.35 1115.66C1495.05 1097.82 1469.44 1093.09 1448.24 1105.33ZM1455.44 1130.04L1366.61 1377.47L1106.41 1331.56L1455.44 1130.04ZM1216.86 1564.92L1096.98 1357.27L1279.83 1389.54L1216.86 1564.92ZM1243.79 1569.78L1306.79 1394.29L1370.9 1405.61C1378.33 1406.92 1386.38 1402.24 1388.93 1395.15L1410.46 1335.2L1592.95 1368.2L1243.79 1569.78ZM1602.19 1342.45L1419.7 1309.45L1482.37 1134.91L1602.19 1342.45Z" fill="url(#paint6_linear)"/>
<path fill-rule="evenodd" clip-rule="evenodd" d="M1727.62 944.034L2087.37 736.331C2108.57 724.089 2134.18 728.819 2144.48 746.659L2269.48 963.165C2279.84 981.115 2270.94 1005.62 2249.87 1017.79L1890.12 1225.49C1868.91 1237.73 1843.3 1233.01 1833 1215.17L1708 998.659C1697.67 980.758 1706.49 956.232 1727.62 944.034ZM2005.74 1008.47L2094.57 761.04L1745.54 962.555L2005.74 1008.47ZM1736.11 988.273L1855.99 1195.92L1918.96 1020.54L1736.11 988.273ZM1945.92 1025.29L1882.91 1200.78L2232.07 999.197L2049.58 966.198L2028.06 1026.15C2025.51 1033.24 2017.45 1037.92 2010.03 1036.61L1945.92 1025.29ZM2058.83 940.448L2241.32 973.447L2121.49 765.907L2058.83 940.448Z" fill="url(#paint7_linear)"/>
<path fill-rule="evenodd" clip-rule="evenodd" d="M915.312 922.271L555.56 1129.97C534.433 1142.17 525.612 1166.7 535.947 1184.6L660.947 1401.1C671.247 1418.95 696.856 1423.67 718.06 1411.43L1077.81 1203.73C1098.89 1191.56 1107.79 1167.05 1097.42 1149.1L972.424 932.599C962.124 914.759 936.515 910.029 915.312 922.271ZM922.515 946.98L833.68 1194.41L573.481 1148.5L922.515 946.98ZM683.934 1381.86L564.051 1174.21L746.902 1206.48L683.934 1381.86ZM710.856 1386.72L773.864 1211.23L837.974 1222.55C845.396 1223.86 853.455 1219.18 856 1212.09L877.527 1152.14L1060.02 1185.14L710.856 1386.72ZM1069.26 1159.39L886.772 1126.39L949.438 951.847L1069.26 1159.39Z" fill="url(#paint8_linear)"/>
<path fill-rule="evenodd" clip-rule="evenodd" d="M1194.69 760.974L1554.44 553.271C1575.64 541.029 1601.25 545.758 1611.55 563.599L1736.55 780.105C1746.91 798.055 1738.01 822.562 1716.94 834.729L1357.19 1042.43C1335.98 1054.67 1310.37 1049.95 1300.07 1032.1L1175.07 815.599C1164.74 797.698 1173.56 773.172 1194.69 760.974ZM1472.81 825.408L1561.64 577.98L1212.61 779.495L1472.81 825.408ZM1203.18 805.213L1323.06 1012.86L1386.03 837.477L1203.18 805.213ZM1412.99 842.234L1349.98 1017.72L1699.14 816.137L1516.65 783.138L1495.13 843.094C1492.58 850.184 1484.52 854.855 1477.1 853.546L1412.99 842.234ZM1525.9 757.388L1708.39 790.387L1588.56 582.847L1525.9 757.388Z" fill="url(#paint9_linear)"/>
<defs>
<linearGradient id="paint0_linear" x1="1137.12" y1="-190.667" x2="1137.12" y2="1970.31" gradientUnits="userSpaceOnUse">
<stop stop-color="#E3E3E3"/>
<stop offset="1" stop-color="white"/>
</linearGradient>
<linearGradient id="paint1_linear" x1="1137.12" y1="-190.667" x2="1137.12" y2="1970.31" gradientUnits="userSpaceOnUse">
<stop stop-color="#E3E3E3"/>
<stop offset="1" stop-color="white"/>
</linearGradient>
<linearGradient id="paint2_linear" x1="1137.12" y1="-190.667" x2="1137.12" y2="1970.31" gradientUnits="userSpaceOnUse">
<stop stop-color="#E3E3E3"/>
<stop offset="1" stop-color="white"/>
</linearGradient>
<linearGradient id="paint3_linear" x1="1137.12" y1="-190.667" x2="1137.12" y2="1970.31" gradientUnits="userSpaceOnUse">
<stop stop-color="#E3E3E3"/>
<stop offset="1" stop-color="white"/>
</linearGradient>
<linearGradient id="paint4_linear" x1="1137.12" y1="-190.667" x2="1137.12" y2="1970.31" gradientUnits="userSpaceOnUse">
<stop stop-color="#E3E3E3"/>
<stop offset="1" stop-color="white"/>
</linearGradient>
<linearGradient id="paint5_linear" x1="1137.12" y1="-190.667" x2="1137.12" y2="1970.31" gradientUnits="userSpaceOnUse">
<stop stop-color="#E3E3E3"/>
<stop offset="1" stop-color="white"/>
</linearGradient>
<linearGradient id="paint6_linear" x1="1137.12" y1="-190.667" x2="1137.12" y2="1970.31" gradientUnits="userSpaceOnUse">
<stop stop-color="#E3E3E3"/>
<stop offset="1" stop-color="white"/>
</linearGradient>
<linearGradient id="paint7_linear" x1="1137.12" y1="-190.667" x2="1137.12" y2="1970.31" gradientUnits="userSpaceOnUse">
<stop stop-color="#E3E3E3"/>
<stop offset="1" stop-color="white"/>
</linearGradient>
<linearGradient id="paint8_linear" x1="1137.12" y1="-190.667" x2="1137.12" y2="1970.31" gradientUnits="userSpaceOnUse">
<stop stop-color="#E3E3E3"/>
<stop offset="1" stop-color="white"/>
</linearGradient>
<linearGradient id="paint9_linear" x1="1137.12" y1="-190.667" x2="1137.12" y2="1970.31" gradientUnits="userSpaceOnUse">
<stop stop-color="#E3E3E3"/>
<stop offset="1" stop-color="white"/>
</linearGradient>
</defs>
</svg>
